<svg viewBox="0 0 32 32" xmlns="http://www.w3.org/2000/svg"><path d="m15.32 18.97c.11-.96.17-2.87-.36-4.46-1.03-1.38-2.72-2.92-5.85-5.05-.1-.06-.12-.19-.05-.28.48-.65 2.16-5.31 2.84-9.01.04-.21.32-.21.37-.01.62 2.61 3.25 12.55 13.35 13.89.19.03.18.33 0 .38-1.49.39-7.12 1.57-9.97 4.73-.13.15-.37.02-.32-.17z" fill="#e1e800"/><path d="m10.44 13.03c-.11.96-.17 2.87.36 4.46 1.03 1.38 2.72 2.92 5.85 5.05.1.06.12.19.05.28-.48.65-2.16 5.31-2.84 9.01-.04.21-.32.21-.37.01-.62-2.61-3.25-12.55-13.35-13.89-.19-.03-.18-.33 0-.38 1.49-.39 7.12-1.57 9.97-4.73.13-.15.37-.02.32.17z" fill="#e1e800"/></svg>