<?xml version="1.0" encoding="UTF-8"?>
<svg id="Layer_1" xmlns="http://www.w3.org/2000/svg" width="538.9676062" height="123.2319037" version="1.1" viewBox="0 0 538.9676062 123.2319037">
  <!-- Generator: Adobe Illustrator 30.1.0, SVG Export Plug-In . SVG Version: 2.1.1 Build 136)  -->
  <g>
    <path d="M388.4685828,32.702326h-1.0927734c-.1328125,0-.2363281-.0366211-.3125-.1098633-.0751953-.0732422-.1269531-.1635742-.1552734-.2709961l-1.4335938-6.065918h-9l-2.8808594,6.065918c-.0478516.1074219-.1230469.1977539-.2275391.2709961-.1035156.0732422-.2177734.1098633-.3398438.1098633h-1.0791016l10.0205078-20.732666h1.4052734l5.0957031,20.732666ZM385.2185828,25.1857245l-2.484375-10.5493164c-.0380859-.1757812-.0751953-.3686523-.1132812-.5788574-.0380859-.2099609-.0761719-.4370117-.1132812-.6811523-.0947266.2441406-.1875.4711914-.2773438.6811523-.0898438.2102051-.1728516.407959-.2480469.5935059l-4.9960938,10.534668h8.2324219Z" style="fill: #e0e400;"/>
    <path d="M414.6707312,11.96966l-2.4697266,20.732666h-.6523438c-.1230469,0-.2226562-.0268555-.2978516-.0805664-.0761719-.0537109-.1523438-.1342773-.2275391-.2416992l-9.7373047-18.0512695c-.0097656.1171875-.0166016.2294922-.0214844.3369141-.0048828.107666-.0166016.2148438-.0351562.3222656l-2.1005859,17.7143555h-1.2353516l2.4697266-20.732666h.6962891c.1318359,0,.2265625.0170898.2832031.0512695.0566406.0344238.1230469.1098633.1992188.2270508l9.7373047,18.0515137c.0087891-.1367188.015625-.2661133.0205078-.3884277.0048828-.1220703.0166016-.2365723.0361328-.3442383l2.1005859-17.597168h1.234375Z" style="fill: #e0e400;"/>
    <path d="M427.2185828,29.9916327c-.4628906.5080566-.9150391.9450684-1.3554688,1.3115234-.4394531.3662109-.8847656.6665039-1.3339844.9008789-.4492188.2346191-.9150391.4082031-1.3984375.5202637-.4824219.1123047-.9980469.168457-1.546875.168457-.7851562,0-1.4833984-.1342773-2.09375-.402832s-1.1230469-.6496582-1.5400391-1.1428223c-.4160156-.4931641-.7333984-1.0939941-.9511719-1.8022461s-.3261719-1.5019531-.3261719-2.3811035c0-.7324219.0712891-1.4699707.2128906-2.2124023.1416016-.7421875.3525391-1.4553223.6318359-2.1391602.2792969-.6835938.6240234-1.3234863,1.0361328-1.9194336.4111328-.5957031.8818359-1.1135254,1.4121094-1.5529785.5302734-.4396973,1.1162109-.786377,1.7607422-1.0402832.6425781-.2539062,1.3388672-.3811035,2.0859375-.3811035.6904297,0,1.2753906.1003418,1.7529297.300293.4775391.2004395.8662109.4494629,1.1640625.7473145.2978516.2980957.5136719.6203613.6455078.967041.1328125.3469238.1992188.6716309.1992188.9743652,0,.4006348-.0527344.7817383-.15625,1.1428223-.1044922.3615723-.2890625.7033691-.5537109,1.0256348-.2646484.3225098-.6240234.6252441-1.0791016.9084473-.4541016.2834473-1.0332031.5446777-1.7382812.7839355-.7050781.239502-1.5498047.4567871-2.5341797.6520996-.9833984.1953125-2.1386719.3662109-3.4628906.5126953-.0195312.1955566-.0351562.395752-.0498047.6008301-.0136719.2050781-.0214844.4055176-.0214844.6005859,0,1.4555664.3193359,2.5935059.9580078,3.4140625s1.6015625,1.2307129,2.8886719,1.2307129c.5019531,0,.953125-.0561523,1.3554688-.168457s.7617188-.2563477,1.0791016-.432373c.3173828-.1757812.5957031-.361084.8378906-.5566406.2412109-.1953125.4560547-.3808594.6455078-.5568848.1894531-.1757812.3525391-.3198242.4892578-.4321289.1376953-.1123047.2626953-.168457.3759766-.168457.1142578,0,.2138672.0488281.2988281.1464844l.3115234.3808594ZM423.7410437,18.9440252c-.7568359,0-1.4404297.1638184-2.0507812.4909668-.6103516.3273926-1.1494141.769043-1.6181641,1.3259277-.4677734.5568848-.8613281,1.1992188-1.1777344,1.9267578-.3173828.7277832-.5517578,1.4870605-.703125,2.2783203,1.2021484-.1367188,2.2382812-.295166,3.1083984-.4760742.8710938-.1806641,1.609375-.3710938,2.2148438-.5715332.6054688-.1999512,1.0976562-.4174805,1.4765625-.6518555.3779297-.2346191.6689453-.4763184.8720703-.7253418.2041016-.2490234.3408203-.5056152.4121094-.7692871s.1064453-.5371094.1064453-.8205566c0-.2050781-.0449219-.4272461-.1347656-.6665039s-.2392578-.456543-.4472656-.6520996c-.2080078-.1953125-.4804688-.3591309-.8164062-.4909668s-.75-.1977539-1.2421875-.1977539Z" style="fill: #e0e400;"/>
    <path d="M448.9217078,18.1234686l-6.0605469,14.5788574h-.9658203c-.1513672,0-.2412109-.1025391-.2695312-.3076172l-2.1572266-11.8388672c-.0478516-.234375-.0761719-.4638672-.0849609-.6887207-.0380859.1171875-.0761719.2321777-.1142578.3442383-.0371094.1125488-.0800781.2272949-.1269531.3444824l-5.0107422,11.8388672c-.0761719.2050781-.1894531.3076172-.3408203.3076172h-.9228516l-2.6113281-14.5788574h.9511719c.2460938,0,.3925781.1171875.4394531.3518066l1.8876953,11.501709c.0478516.4299316.0761719.8449707.0859375,1.2456055.0751953-.2053223.1503906-.4104004.2265625-.6154785s.15625-.4150391.2412109-.630127l4.8544922-11.604248c.0664062-.2148438.203125-.3225098.4121094-.3225098h.5244141c.2080078,0,.3222656.107666.3408203.3225098l2.0869141,11.604248c.0371094.2150879.0683594.4250488.0917969.630127s.0449219.4101562.0644531.6154785c.0654297-.1953125.1318359-.395752.1982422-.6008301s.1376953-.4199219.2128906-.6447754l4.6279297-11.501709c.046875-.1074219.1132812-.1928711.1982422-.2565918.0849609-.0632324.1796875-.0952148.2841797-.0952148h.9365234Z" style="fill: #e0e400;"/>
    <path d="M460.034989,21.566828h1.0927734c.1611328,0,.3027344-.0073242.4257812-.0219727s.2392578-.0439453.3476562-.0878906c.109375-.0439453.2109375-.1000977.3056641-.168457s.1933594-.161377.2978516-.2785645l8.4033203-8.6152344c.1513672-.1760254.2949219-.2905273.4326172-.3444824.1367188-.0534668.2958984-.0805664.4755859-.0805664h1.1494141l-9.1123047,9.3334961c-.1708984.1855469-.3261719.3344727-.46875.4467773-.1416016.1123047-.2929688.1977539-.4541016.2563477.3310547.1171875.6054688.3615723.8232422.732666l7.2529297,9.9633789h-1.1347656c-.2460938,0-.4169922-.0314941-.5117188-.0952148-.0947266-.0634766-.1796875-.1586914-.2548828-.2856445l-6.671875-8.9963379c-.0751953-.1074219-.1484375-.2001953-.2197266-.2785645-.0712891-.0778809-.15625-.144043-.2558594-.1977539-.0986328-.0534668-.2148438-.0927734-.3476562-.1171875-.1318359-.0241699-.3027344-.0366211-.5107422-.0366211h-1.1923828l-1.1923828,10.0073242h-1.4052734l2.4560547-20.7619629h1.4189453l-1.1494141,9.6264648Z" style="fill: #e0e400;"/>
    <path d="M476.6424109,18.1234686l-1.7177734,14.5788574h-1.3203125l1.7177734-14.5788574h1.3203125ZM477.6785437,13.0978338c0,.1757812-.0361328.3395996-.1064453.4909668-.0712891.1516113-.1630859.2856445-.2773438.402832-.1132812.1171875-.2431641.2102051-.3896484.2783203-.1474609.0686035-.2958984.1027832-.4472656.1027832-.1611328,0-.3125-.0341797-.4541016-.1027832-.1425781-.0681152-.265625-.1611328-.3691406-.2783203-.1044922-.1171875-.1894531-.2512207-.2558594-.402832-.0664062-.1513672-.0996094-.3151855-.0996094-.4909668s.0332031-.3417969.0996094-.4980469.1533203-.2954102.2626953-.4177246c.1083984-.1218262.234375-.2172852.3759766-.2856445.1416016-.0681152.2929688-.1025391.4541016-.1025391.1513672,0,.3007812.0344238.4472656.1025391.1464844.0683594.2773438.1611328.390625.2783203s.203125.2565918.2695312.4177246.0996094.3295898.0996094.5053711Z" style="fill: #e0e400;"/>
    <path d="M481.8650671,22.8121893c.3789062-.7714844.8017578-1.4626465,1.2705078-2.0732422.46875-.6103516.9628906-1.1257324,1.4833984-1.5458984.5205078-.4196777,1.0546875-.7397461,1.6035156-.9597168.5488281-.2197266,1.1025391-.3295898,1.6611328-.3295898.6054688,0,1.1240234.1223145,1.5546875.3662109.4296875.2443848.7753906.6008301,1.0361328,1.0698242.2597656.46875.4296875,1.0427246.5107422,1.7214355.0800781.6791992.0683594,1.453125-.0351562,2.3225098l-1.0654297,9.3186035h-1.3339844l1.0644531-9.3186035c.1611328-1.3869629.0712891-2.4519043-.2695312-3.1943359-.3408203-.7421875-.9794922-1.1135254-1.9160156-1.1135254-.5302734,0-1.0625.1391602-1.5966797.4177246-.5351562.2783203-1.0556641.6738281-1.5615234,1.1867676-.5068359.5126953-.9824219,1.1333008-1.4267578,1.8608398-.4443359.7277832-.8369141,1.5456543-1.1777344,2.4541016l-.8662109,7.7070312h-1.3339844l1.6884766-14.6228027h.6103516c.3320312,0,.4970703.1757812.4970703.5275879l-.3974609,4.2050781Z" style="fill: #e0e400;"/>
    <path d="M506.9041296,11.3837225l-2.5263672,21.3186035h-.6533203c-.1894531,0-.3173828-.0534668-.3837891-.1611328-.0654297-.1074219-.0986328-.2294922-.0986328-.3664551l.4677734-4.5859375c-.3691406.7912598-.7832031,1.5117188-1.2412109,2.1611328-.4599609.6496582-.9443359,1.2087402-1.4550781,1.6777344-.5107422.46875-1.0458984.8303223-1.6044922,1.0842285s-1.1259766.3808594-1.703125.3808594c-.6152344,0-1.1542969-.1223145-1.6181641-.3662109-.4638672-.2441406-.8515625-.5908203-1.1640625-1.0402832-.3115234-.4492188-.5488281-.9914551-.7089844-1.6264648-.1611328-.6347656-.2412109-1.3479004-.2412109-2.1391602,0-.7421875.0751953-1.5019531.2265625-2.2783203.1513672-.7766113.3662109-1.5288086.6455078-2.2565918.2792969-.7275391.6201172-1.411377,1.0224609-2.0512695.4023438-.6396484.8583984-1.1989746,1.3701172-1.6774902.5107422-.4785156,1.0683594-.8571777,1.6748047-1.135498.6054688-.2785645,1.2529297-.4177246,1.9443359-.4177246.7666016,0,1.4736328.173584,2.1220703.5202637.6474609.3466797,1.1757812.8620605,1.5820312,1.5456543l1.0371094-8.5859375h1.3056641ZM504.4344031,21.0831854c-.2089844-.3808594-.4423828-.7055664-.703125-.9743652-.2597656-.2685547-.5371094-.4833984-.8300781-.6445312-.2939453-.1611328-.6015625-.2785645-.9228516-.3518066s-.6435547-.1098633-.9648438-.1098633c-.5966797,0-1.1523438.1245117-1.6679688.3737793-.515625.2490234-.984375.588623-1.4052734,1.0183105-.4208984.4299316-.7949219.9279785-1.1210938,1.4943848-.3271484.5666504-.6015625,1.1674805-.8232422,1.8022461-.2226562.6350098-.3925781,1.2893066-.5117188,1.9633789-.1181641.6740723-.1767578,1.3237305-.1767578,1.9487305,0,1.309082.2412109,2.3295898.7236328,3.0622559s1.1875,1.098877,2.1152344,1.098877c.5390625,0,1.078125-.1560059,1.6181641-.46875.5390625-.3125,1.0615234-.7521973,1.5683594-1.3188477.5058594-.5664062.9794922-1.2475586,1.4189453-2.0439453.4404297-.7958984.8310547-1.6774902,1.1708984-2.6445312l.5117188-4.2053223Z" style="fill: #e0e400;"/>
    <path d="M520.8992468,32.8927557c-.7578125,0-1.4462891-.1369629-2.0654297-.4101562-.6201172-.2734375-1.1503906-.6689453-1.5898438-1.1867676-.4404297-.5178223-.78125-1.1452637-1.0224609-1.8828125s-.3613281-1.5751953-.3613281-2.5129395c0-1.1816406.1699219-2.3149414.5107422-3.3991699s.8203125-2.0415039,1.4404297-2.8718262c.6201172-.8300781,1.3554688-1.4919434,2.2070312-1.9853516.8525391-.4931641,1.7890625-.7399902,2.8105469-.7399902.7568359,0,1.4453125.1369629,2.0654297.4104004s1.1494141.6691895,1.5898438,1.1867676c.4404297.5178223.7802734,1.1452637,1.0224609,1.8828125.2412109.7375488.3613281,1.5654297.3613281,2.4833984,0,1.1821289-.1728516,2.3149414-.5175781,3.3994141-.3457031,1.0842285-.8261719,2.0439453-1.4414062,2.8789062-.6152344.8352051-1.3476562,1.5019531-2.2001953,2-.8515625.498291-1.7880859.7473145-2.8095703.7473145ZM521.0125281,31.7938788c.8232422,0,1.5732422-.222168,2.25-.666748.6757812-.4443359,1.2558594-1.0351562,1.7382812-1.7727051s.8535156-1.5825195,1.1142578-2.5349121.390625-1.9316406.390625-2.9377441c0-1.5627441-.3359375-2.7641602-1.0078125-3.604248s-1.6044922-1.2602539-2.796875-1.2602539c-.8232422,0-1.5732422.2197266-2.2490234.6594238-.6767578.4394531-1.2539062,1.0234375-1.7324219,1.7509766-.4775391.7277832-.8486328,1.5654297-1.1142578,2.5126953-.2646484.9475098-.3964844,1.934082-.3964844,2.9597168,0,1.5532227.3330078,2.7570801,1,3.6118164s1.6015625,1.2819824,2.8037109,1.2819824Z" style="fill: #e0e400;"/>
    <path d="M533.7586218,19.6034491l-1.5048828,12.7912598-.5957031,3.369873c-.1132812.4003906-.3457031.6008301-.6953125.6008301h-.4833984l1.9736328-16.7473145-1.7744141-.1171875c-.1132812-.0195312-.1992188-.0585938-.2558594-.1171875s-.0800781-.1467285-.0703125-.263916l.0566406-.5419922h2.1572266l.2275391-1.8461914c.1035156-.8300781.2929688-1.5605469.5673828-2.1904297.2744141-.630127.6171875-1.1550293,1.0292969-1.5751953.4111328-.4199219.8769531-.7348633,1.3984375-.9450684.5195312-.2099609,1.078125-.3149414,1.6748047-.3149414.2646484,0,.5273438.0270996.7871094.0805664.2607422.0537109.4990234.1296387.7167969.2270508l-.1416016.7033691c-.0195312.0783691-.0615234.1245117-.1279297.1391602s-.1533203.0146484-.2626953,0c-.1083984-.0146484-.2392578-.0341797-.3896484-.0585938-.1523438-.0241699-.3271484-.0366211-.5253906-.0366211-.4355469,0-.8427734.0732422-1.2207031.2197266-.3789062.1464844-.7197266.3786621-1.0224609.6960449-.3027344.317627-.5585938.7302246-.7666016,1.2380371-.2080078.5080566-.3544922,1.1281738-.4394531,1.8608398l-.2275391,1.8022461h3.9892578l-.1425781,1.0256348h-3.9316406Z" style="fill: #e0e400;"/>
    <path d="M396.7869421,46.768244v21.098877h-2.9238281v-14.4616699c0-.234375.0068359-.4907227.0205078-.769043.0146484-.2785645.0361328-.559082.0644531-.8425293l-6.5722656,12.5273438c-.2548828.5180664-.6484375.7766113-1.1777344.7766113h-.46875c-.5390625,0-.9316406-.2585449-1.1777344-.7766113l-6.671875-12.5566406c.0283203.2834473.0498047.5666504.0644531.8498535.0136719.2834473.0214844.5471191.0214844.7910156v14.4616699h-2.9248047v-21.098877h2.484375c.2929688,0,.5205078.0268555.6816406.0805664.1601562.0537109.3066406.2175293.4394531.4907227l6.5576172,12.263916c.1425781.2834473.2773438.5739746.4052734.8718262.1269531.2978516.2431641.6030273.3476562.9155273.1132812-.3125.234375-.6225586.3613281-.9301758.1279297-.3078613.2626953-.6030273.4052734-.8864746l6.4580078-12.2346191c.1328125-.2731934.2792969-.4370117.4404297-.4907227.1601562-.0537109.3876953-.0805664.6806641-.0805664h2.484375Z" style="fill: #e0e400;"/>
    <path d="M413.010575,52.9220526v14.9450684h-1.8457031c-.40625,0-.6669922-.2001953-.7802734-.6008301l-.2265625-1.3918457c-.3037109.3322754-.6230469.6350098-.9589844.9084473s-.6933594.5080566-1.0712891.7033691c-.3789062.1953125-.7832031.3466797-1.2138672.4541016s-.8916016.1611328-1.3837891.1611328c-.7949219,0-1.4951172-.1369629-2.1005859-.4101562-.6054688-.2734375-1.1142578-.6594238-1.5253906-1.1574707-.4121094-.498291-.7216797-1.0964355-.9306641-1.7949219-.2080078-.6982422-.3115234-1.4675293-.3115234-2.3076172v-9.5092773h3.0517578v9.5092773c0,1.0061035.2246094,1.7873535.6738281,2.3442383.4492188.5566406,1.1328125.8352051,2.0507812.8352051.671875,0,1.2988281-.1586914,1.8808594-.4763184.5820312-.3171387,1.1289062-.7546387,1.6396484-1.3112793v-10.901123h3.0517578Z" style="fill: #e0e400;"/>
    <path d="M421.3709265,68.1014959c-1.2021484,0-2.1269531-.3491211-2.7753906-1.0476074-.6474609-.6982422-.9716797-1.682373-.9716797-2.9523926v-8.7033691h-1.5898438c-.1708984,0-.3173828-.0559082-.4404297-.168457-.1230469-.1120605-.1845703-.2805176-.1845703-.5053711v-1.2746582l2.3427734-.3518066.6669922-4.3222656c.046875-.1660156.1279297-.3005371.2412109-.4030762s.2646484-.1538086.4541016-.1538086h1.5615234v4.9084473h4.0166016v2.2709961h-4.0166016v8.4836426c0,.5373535.1279297.9475098.3828125,1.2307129.2558594.2834473.5966797.4250488,1.0224609.4250488.2363281,0,.4394531-.0317383.6103516-.0952148.1699219-.0634766.3164062-.1320801.4394531-.2053223s.2294922-.1413574.3193359-.2050781c.0898438-.0634766.1777344-.0952148.2626953-.0952148.1708984,0,.3076172.0976562.4121094.2929688l.9082031,1.5385742c-.4736328.4299316-1.03125.7595215-1.6748047.9890137-.6435547.229248-1.3056641.3442383-1.9873047.3442383Z" style="fill: #e0e400;"/>
    <path d="M439.3123328,52.9220526v14.9450684h-1.8457031c-.40625,0-.6669922-.2001953-.7802734-.6008301l-.2265625-1.3918457c-.3037109.3322754-.6230469.6350098-.9589844.9084473s-.6933594.5080566-1.0712891.7033691c-.3789062.1953125-.7832031.3466797-1.2138672.4541016s-.8916016.1611328-1.3837891.1611328c-.7949219,0-1.4951172-.1369629-2.1005859-.4101562-.6054688-.2734375-1.1142578-.6594238-1.5253906-1.1574707-.4121094-.498291-.7216797-1.0964355-.9306641-1.7949219-.2080078-.6982422-.3115234-1.4675293-.3115234-2.3076172v-9.5092773h3.0517578v9.5092773c0,1.0061035.2246094,1.7873535.6738281,2.3442383.4492188.5566406,1.1328125.8352051,2.0507812.8352051.671875,0,1.2988281-.1586914,1.8808594-.4763184.5820312-.3171387,1.1289062-.7546387,1.6396484-1.3112793v-10.901123h3.0517578Z" style="fill: #e0e400;"/>
    <path d="M442.6765906,55.002619c1.6367188-1.5725098,3.5859375-2.3588867,5.8476562-2.3588867.8330078,0,1.5732422.1391602,2.2216797.4174805.6474609.2783203,1.1923828.6716309,1.6318359,1.1794434.4404297.5080566.7763672,1.1113281,1.0078125,1.8095703.2324219.6984863.3476562,1.4726562.3476562,2.3222656v9.4946289h-1.3623047c-.2929688,0-.515625-.0461426-.6669922-.1391602-.1513672-.0927734-.2792969-.2807617-.3837891-.564209l-.2978516-1.2160645c-.3691406.342041-.7333984.6472168-1.0927734.9157715-.359375.2687988-.7314453.4958496-1.1142578.6813965s-.7949219.3244629-1.2353516.4174805c-.4394531.0927734-.9248047.1391602-1.4541016.1391602-.5869141,0-1.1337891-.0830078-1.6396484-.2490234-.5068359-.1660156-.9443359-.4174805-1.3134766-.7546387-.3681641-.3369141-.6591797-.7546387-.8720703-1.2526855-.2138672-.498291-.3203125-1.0842285-.3203125-1.7583008,0-.5761719.1494141-1.1376953.4472656-1.6848145.2988281-.5471191.7900391-1.0378418,1.4765625-1.4726562.6855469-.4345703,1.5898438-.793457,2.7109375-1.0769043,1.1210938-.2832031,2.5048828-.4443359,4.1523438-.4836426v-.9963379c0-1.0742188-.2226562-1.8752441-.6679688-2.402832-.4443359-.5273438-1.0976562-.7912598-1.9580078-.7912598-.5869141,0-1.0791016.0759277-1.4765625.2270508-.3974609.1516113-.7431641.3151855-1.0361328.4909668-.2939453.1757812-.5537109.3395996-.7802734.4907227-.2275391.1516113-.46875.2272949-.7246094.2272949-.2080078,0-.3857422-.0561523-.5322266-.168457s-.2675781-.2514648-.3613281-.4177246l-.5537109-1.0256348ZM450.7674109,61.3322088c-1.0888672.0393066-2.0068359.1296387-2.7539062.2712402-.7480469.1416016-1.3535156.3222656-1.8173828.5419922s-.796875.4812012-1,.7839355c-.2041016.3029785-.3056641.6350098-.3056641.9963379,0,.3515625.0546875.6520996.1630859.901123.109375.2490234.2607422.4541016.4541016.6154785.1943359.1611328.4208984.2783203.6816406.3515625.2597656.0732422.546875.1098633.8583984.1098633.7949219,0,1.4785156-.1538086,2.0517578-.4614258.5722656-.3078613,1.1279297-.7546387,1.6679688-1.3408203v-2.7692871Z" style="fill: #e0e400;"/>
    <path d="M460.4041296,46.1820624v21.6850586h-3.0517578v-21.6850586h3.0517578Z" style="fill: #e0e400;"/>
    <path d="M381.4002234,81.9330389c1.3339844,0,2.4912109.1611328,3.4707031.4838867.9794922.3222656,1.7880859.7739258,2.4267578,1.3549805.6386719.581543,1.1142578,1.2797852,1.4267578,2.0952148.3125.815918.46875,1.7167969.46875,2.7036133,0,1.0058594-.1660156,1.9267578-.4970703,2.7617188-.3310547.8354492-.8232422,1.5532227-1.4765625,2.1538086-.6523438.6010742-1.4638672,1.0698242-2.4335938,1.4067383-.9707031.3369141-2.0986328.5053711-3.3857422.5053711h-3.0371094v7.6335449h-3.3222656v-21.098877h6.359375ZM381.4002234,92.6879217c.7382812,0,1.3886719-.0976562,1.9521484-.2929688.5625-.1953125,1.03125-.4711914,1.4052734-.828125.3730469-.3564453.6542969-.7885742.84375-1.2963867s.2841797-1.074707.2841797-1.699707c0-.6157227-.0917969-1.1674805-.2763672-1.6557617s-.4619141-.9033203-.8310547-1.2456055c-.3691406-.3417969-.8349609-.6030273-1.3974609-.7836914-.5634766-.1806641-1.2236328-.2709961-1.9804688-.2709961h-3.0371094v8.0732422h3.0371094Z" style="fill: #e0e400;"/>
    <path d="M391.0095984,90.1679022c1.6367188-1.5727539,3.5859375-2.359375,5.8476562-2.359375.8330078,0,1.5732422.1391602,2.2216797.4179688.6474609.2783203,1.1923828.6713867,1.6318359,1.1791992.4404297.5083008.7763672,1.1113281,1.0078125,1.8095703.2324219.6987305.3476562,1.4726562.3476562,2.3222656v9.4943848h-1.3623047c-.2929688,0-.515625-.0463867-.6669922-.1391602s-.2792969-.2807617-.3837891-.5639648l-.2978516-1.2163086c-.3691406.3422852-.7333984.6474609-1.0927734.9155273-.359375.269043-.7314453.4960938-1.1142578.6816406s-.7949219.324707-1.2353516.4174805c-.4394531.0927734-.9248047.1391602-1.4541016.1391602-.5869141,0-1.1337891-.0830078-1.6396484-.2490234-.5068359-.1660156-.9443359-.4174805-1.3134766-.7543945-.3681641-.3374023-.6591797-.7548828-.8720703-1.2529297-.2138672-.4980469-.3203125-1.0844727-.3203125-1.7583008,0-.5761719.1494141-1.1376953.4472656-1.6850586.2988281-.5466309.7900391-1.0373535,1.4765625-1.4719238.6855469-.4345703,1.5898438-.7939453,2.7109375-1.0771484s2.5048828-.4443359,4.1523438-.4833984v-.996582c0-1.0742188-.2226562-1.8754883-.6679688-2.402832-.4443359-.5273438-1.0976562-.7910156-1.9580078-.7910156-.5869141,0-1.0791016.0756836-1.4765625.2270508s-.7431641.3149414-1.0361328.4907227c-.2939453.1757812-.5537109.3393555-.7802734.4907227-.2275391.1518555-.46875.2270508-.7246094.2270508-.2080078,0-.3857422-.0561523-.5322266-.168457-.1464844-.1118164-.2675781-.2514648-.3613281-.4174805l-.5537109-1.0253906ZM399.1004187,96.497492c-1.0888672.0390625-2.0068359.1293945-2.7539062.2709961-.7480469.1416016-1.3535156.3222656-1.8173828.5419922-.4638672.2194824-.796875.4812012-1,.7839355-.2041016.3027344-.3056641.6347656-.3056641.9960938,0,.3515625.0546875.6518555.1630859.9008789.109375.2495117.2607422.4545898.4541016.6157227.1943359.1611328.4208984.2783203.6816406.3515625.2597656.0732422.546875.1098633.8583984.1098633.7949219,0,1.4785156-.1538086,2.0517578-.4614258.5722656-.3076172,1.1279297-.7548828,1.6679688-1.3408203v-2.7687988Z" style="fill: #e0e400;"/>
    <path d="M408.5115515,90.8563788c.4541016-.9472656,1.0029297-1.6923828,1.6464844-2.234375.6435547-.5424805,1.4140625-.8134766,2.3134766-.8134766.3125,0,.6054688.0366211.8798828.1098633s.5205078.1831055.7382812.3300781l-.2128906,2.3735352c-.0380859.1660156-.0976562.2807617-.1777344.3442383s-.1865234.0952148-.3193359.0952148c-.1416016,0-.3457031-.0268555-.6103516-.0805664s-.5439453-.0805664-.8369141-.0805664c-.4267578,0-.8027344.0634766-1.1289062.1904297s-.6201172.3125-.8798828.5566406c-.2607422.2446289-.4902344.5424805-.6884766.894043-.1992188.3515625-.3837891.7519531-.5537109,1.2011719v9.2893066h-3.0517578v-14.9450684h1.7744141c.3212891,0,.5439453.0615234.6669922.1835938s.2080078.3344727.2558594.637207l.1845703,1.9487305Z" style="fill: #e0e400;"/>
    <path d="M420.7459265,103.2662909c-1.2021484,0-2.1269531-.3491211-2.7753906-1.0473633-.6474609-.6982422-.9716797-1.6826172-.9716797-2.9526367v-8.7028809h-1.5898438c-.1708984,0-.3173828-.0561523-.4404297-.168457s-.1845703-.2807617-.1845703-.5058594v-1.2744141l2.3427734-.3515625.6669922-4.3227539c.046875-.1660156.1279297-.300293.2412109-.402832s.2646484-.1538086.4541016-.1538086h1.5615234v4.9086914h4.0166016v2.2709961h-4.0166016v8.4831543c0,.5371094.1279297.9477539.3828125,1.230957.2558594.2832031.5966797.4248047,1.0224609.4248047.2363281,0,.4394531-.0317383.6103516-.0952148.1699219-.0634766.3164062-.1318359.4394531-.2050781s.2294922-.1416016.3193359-.2050781.1777344-.0952148.2626953-.0952148c.1708984,0,.3076172.0976562.4121094.2929688l.9082031,1.5380859c-.4736328.4301758-1.03125.7597656-1.6748047.9892578s-1.3056641.3442383-1.9873047.3442383Z" style="fill: #e0e400;"/>
    <path d="M429.3338171,90.0648749c.3115234-.331543.6357422-.6323242.9716797-.9008789s.6933594-.5004883,1.0722656-.6958008c.3779297-.1953125.7802734-.3466797,1.2060547-.4545898.4257812-.1069336.8896484-.1611328,1.390625-.1611328.7949219,0,1.4931641.137207,2.09375.4106445.6015625.2734375,1.1074219.6591797,1.5195312,1.1572266.4111328.4980469.7207031,1.0966797.9296875,1.7949219.2080078.6987305.3115234,1.4677734.3115234,2.3076172v9.5090332h-3.0371094v-9.5090332c0-1.0058594-.2246094-1.7875977-.6748047-2.3442383-.4492188-.5566406-1.1328125-.8349609-2.0507812-.8349609-.6806641,0-1.3125.1611328-1.8945312.4833984s-1.1289062.7617188-1.6396484,1.3188477v10.8859863h-3.0517578v-14.9450684h1.8457031c.4160156,0,.6806641.2006836.7949219.6010742l.2128906,1.3769531Z" style="fill: #e0e400;"/>
    <path d="M444.6189734,95.8085272c.0380859.8500977.1660156,1.5849609.3837891,2.204834.2177734.6206055.5087891,1.1357422.8730469,1.5458984s.7998047.7158203,1.3056641.9160156,1.0712891.300293,1.6962891.300293c.5957031,0,1.1113281-.0708008,1.546875-.2124023s.8134766-.2978516,1.1357422-.46875c.3212891-.1708984.5957031-.3271484.8232422-.4692383.2275391-.1411133.4355469-.2124023.625-.2124023.2451172,0,.4345703.0976562.5673828.2929688l.8662109,1.1577148c-.3603516.4394531-.7666016.8110352-1.2207031,1.1132812-.4550781.3032227-.9375.5498047-1.4482422.7402344s-1.0361328.3271484-1.5751953.4101562c-.5400391.0830078-1.0644531.1245117-1.5761719.1245117-1.0029297,0-1.9326172-.1733398-2.7890625-.5200195s-1.5986328-.8574219-2.2285156-1.53125c-.6289062-.6738281-1.1210938-1.5092773-1.4755859-2.5053711-.3554688-.996582-.5322266-2.1437988-.5322266-3.4431152,0-1.0351562.1582031-2.0024414.4746094-2.9008789.3173828-.8989258.7714844-1.6801758,1.3632812-2.3447266.5908203-.6640625,1.3105469-1.1889648,2.1572266-1.574707s1.8046875-.5791016,2.8740234-.5791016c.8896484,0,1.7128906.1494141,2.4697266.4472656.7578125.2978516,1.4101562.7348633,1.9589844,1.3110352.5488281.5766602.9775391,1.2822266,1.2851562,2.1171875.3066406.8354492.4609375,1.7856445.4609375,2.8500977,0,.4882812-.0517578.8154297-.15625.9814453-.1044922.1665039-.2929688.2490234-.5673828.2490234h-9.2978516ZM451.9012,93.8744452c0-.5273438-.0732422-1.0180664-.2197266-1.472168-.1474609-.4545898-.3623047-.8500977-.6464844-1.1870117-.2832031-.3369141-.6367188-.6005859-1.0576172-.7910156s-.90625-.2856445-1.4541016-.2856445c-1.1074219,0-1.9785156.3271484-2.6123047.9814453s-1.0361328,1.5727539-1.2060547,2.7543945h7.1962891Z" style="fill: #e0e400;"/>
    <path d="M460.3611609,90.8563788c.4541016-.9472656,1.0029297-1.6923828,1.6464844-2.234375.6435547-.5424805,1.4140625-.8134766,2.3134766-.8134766.3125,0,.6054688.0366211.8798828.1098633s.5205078.1831055.7382812.3300781l-.2128906,2.3735352c-.0380859.1660156-.0976562.2807617-.1777344.3442383s-.1865234.0952148-.3193359.0952148c-.1416016,0-.3457031-.0268555-.6103516-.0805664s-.5439453-.0805664-.8369141-.0805664c-.4267578,0-.8027344.0634766-1.1289062.1904297s-.6201172.3125-.8798828.5566406c-.2607422.2446289-.4902344.5424805-.6884766.894043-.1992188.3515625-.3837891.7519531-.5537109,1.2011719v9.2893066h-3.0517578v-14.9450684h1.7744141c.3212891,0,.5439453.0615234.6669922.1835938s.2080078.3344727.2558594.637207l.1845703,1.9487305Z" style="fill: #e0e400;"/>
    <path d="M476.5281531,90.797785c-.0761719.1367188-.1611328.234375-.2558594.2929688s-.2128906.0878906-.3544922.0878906c-.1611328,0-.3359375-.0512695-.5253906-.1538086s-.4121094-.2172852-.6669922-.3442383c-.2558594-.1269531-.5566406-.2416992-.9013672-.3442383-.3457031-.1025391-.75-.1538086-1.2138672-.1538086-.3789062,0-.7216797.0463867-1.0292969.1391602s-.5673828.2246094-.7802734.3955078-.3759766.3710938-.4892578.6005859c-.1142578.2294922-.1708984.4760742-.1708984.7397461,0,.3520508.1044922.6450195.3125.8793945s.4824219.4370117.8232422.6079102.7285156.3251953,1.1640625.4614258c.4345703.137207.8798828.2836914,1.3339844.4399414s.8984375.3369141,1.3339844.5419922.8232422.456543,1.1640625.7543945c.3408203.2983398.6152344.659668.8232422,1.0844727s.3125.9401855.3125,1.5456543c0,.703125-.1230469,1.3530273-.3691406,1.9487305s-.6054688,1.1132812-1.0791016,1.5527344c-.4726562.4399414-1.0615234.7817383-1.7666016,1.0258789s-1.5117188.3662109-2.4199219.3662109c-.5019531,0-.9873047-.0463867-1.4550781-.1391602-.46875-.0927734-.9130859-.2197266-1.3339844-.3808594-.421875-.1611328-.8144531-.3540039-1.1787109-.5786133s-.6884766-.4692383-.9726562-.7329102l.7099609-1.2011719c.0849609-.1464844.1914062-.2612305.3193359-.3447266.1279297-.0825195.2861328-.1245117.4755859-.1245117.1992188,0,.3955078.065918.5888672.1977539.1943359.1323242.4208984.2763672.6816406.4326172.2597656.15625.5751953.300293.9443359.4321289s.8271484.1977539,1.3759766.1977539c.4550781,0,.8476562-.0561523,1.1787109-.168457s.6054688-.2661133.8232422-.4614258.3779297-.4179688.4824219-.6669922.15625-.5151367.15625-.7983398c0-.3808594-.1044922-.6933594-.3125-.9379883-.2080078-.2436523-.484375-.4541016-.8300781-.6296387-.3457031-.1757812-.7382812-.3320312-1.1777344-.46875-.4404297-.1367188-.8876953-.2832031-1.3417969-.4394531s-.9013672-.3369141-1.3417969-.5424805c-.4394531-.2050781-.8320312-.4663086-1.1777344-.7836914s-.6220703-.703125-.8300781-1.1577148c-.2080078-.4541016-.3125-1.0083008-.3125-1.6625977,0-.5957031.1162109-1.1625977.3476562-1.699707s.5722656-1.0112305,1.0224609-1.4213867c.4492188-.4101562,1.0029297-.7348633,1.6601562-.9741211.6582031-.2392578,1.4169922-.359375,2.2783203-.359375.9746094,0,1.859375.1611328,2.6542969.4838867.7949219.3222656,1.4619141.7617188,2.0009766,1.3183594l-.6806641,1.1430664Z" style="fill: #e0e400;"/>
    <path d="M483.3269812,89.8597967c.5966797-.6054688,1.2490234-1.0913086,1.9589844-1.4575195.7099609-.3666992,1.5371094-.5498047,2.4833984-.5498047.7949219,0,1.4931641.137207,2.09375.4106445.6015625.2734375,1.1074219.6591797,1.5195312,1.1572266.4111328.4980469.7207031,1.0966797.9296875,1.7949219.2080078.6987305.3115234,1.4677734.3115234,2.3076172v9.5090332h-3.0371094v-9.5090332c0-1.0058594-.2246094-1.7875977-.6748047-2.3442383-.4492188-.5566406-1.1328125-.8349609-2.0507812-.8349609-.6806641,0-1.3125.1611328-1.8945312.4833984s-1.1289062.7617188-1.6396484,1.3188477v10.8859863h-3.0517578v-21.6848145h3.0517578v8.5126953Z" style="fill: #e0e400;"/>
    <path d="M499.8914343,83.5741522c0,.2836914-.0546875.5522461-.1630859.8061523-.109375.2539062-.2578125.4760742-.4472656.6665039s-.4091797.3417969-.6601562.4541016-.5175781.168457-.8017578.168457c-.2744141,0-.5322266-.0561523-.7734375-.168457s-.4521484-.2636719-.6318359-.4541016-.3242188-.4125977-.4326172-.6665039c-.109375-.2539062-.1630859-.5224609-.1630859-.8061523,0-.2929688.0537109-.5664062.1630859-.8203125.1083984-.2539062.2529297-.4760742.4326172-.6669922.1796875-.1904297.390625-.3417969.6318359-.4541016s.4990234-.168457.7734375-.168457c.2841797,0,.5507812.0561523.8017578.168457s.4707031.2636719.6601562.4541016c.1894531.190918.3378906.4130859.4472656.6669922.1083984.2539062.1630859.5273438.1630859.8203125ZM499.3806921,88.0868475v14.9450684h-3.0517578v-14.9450684h3.0517578Z" style="fill: #e0e400;"/>
    <path d="M506.1219031,90.2557928c.6054688-.7329102,1.2939453-1.3237305,2.0654297-1.7729492s1.6679688-.6743164,2.6894531-.6743164c.8144531,0,1.5517578.168457,2.2148438.5058594.6621094.3369141,1.2294922.8276367,1.703125,1.472168.4726562.6450195.8398438,1.4433594,1.0996094,2.3959961.2607422.9521484.390625,2.0439453.390625,3.2744141,0,1.1040039-.1445312,2.1315918-.4326172,3.0842285-.2890625.9521484-.703125,1.777832-1.2421875,2.4760742s-1.1923828,1.2456055-1.9589844,1.6411133-1.6318359.5932617-2.5976562.5932617c-.8515625,0-1.5732422-.1416016-2.1640625-.4248047-.5917969-.2832031-1.1289062-.6738281-1.6113281-1.1723633v6.3442383h-3.0517578v-19.9118652h1.8457031c.4160156,0,.6806641.2006836.7949219.6010742l.2548828,1.5678711ZM506.2781531,99.2809393c.4257812.5668945.8916016.9648438,1.3984375,1.1943359.5058594.2294922,1.0664062.3442383,1.6816406.3442383,1.1923828,0,2.1220703-.4492188,2.7890625-1.3481445.6669922-.8984375,1.0009766-2.2365723,1.0009766-4.0144043,0-.9179688-.0761719-1.7016602-.2275391-2.3515625-.1513672-.6494141-.3691406-1.1796875-.6523438-1.5898438-.2841797-.4101562-.6298828-.7080078-1.0361328-.8935547-.4072266-.1855469-.8662109-.2783203-1.3769531-.2783203-.7763672,0-1.4453125.1733398-2.0087891.5200195-.5625.3466797-1.0859375.8422852-1.5683594,1.4873047v6.9299316Z" style="fill: #e0e400;"/>
  </g>
  <g>
    <g>
      <path d="M149.7633877,103.4556307h-32.2470602V12.4355188h30.7354678v11.4426228h-19.3986468v25.8757433h14.9897752v11.4426228h-14.9897752v30.8165002h20.9102391v11.4426228Z" style="fill: #fff;"/>
      <path d="M205.4387945,103.4556307h-10.3290929v-27.8260025c0-3.9861616.082724-9.6871891.2520533-17.098575.1671461-7.4118867.2518108-16.189055.2518108-16.189055l-12.1362639,43.9682886-2.1727388.0019166-12.0175936-43.9702052s.0824814,8.2793363.2518108,15.9937286c.1673887,7.7163956.2520533,13.4805285.2520533,17.2939014v27.8260025h-10.3290929V12.4355188h12.2184013l10.7070516,40.7212404,10.832957-40.7212404h12.2186439v91.0201119Z" style="fill: #fff;"/>
      <path d="M255.067832,76.8000842c0,8.4961988-1.8068271,15.0626726-5.4163572,19.6989206-3.6117134,4.6387522-8.9021652,6.9566258-15.871598,6.9566258h-14.4859111V12.4355188h14.4859111c13.6868122,0,20.5322804,8.1065476,20.5322804,24.315636,0,9.3621459-3.2749954,15.820439-9.8252288,19.3738774,7.0540975,3.5559427,10.5809036,10.4474597,10.5809036,20.6750519ZM242.9753361,36.8808716c0-8.9269186-2.8972793-13.3928821-8.6915952-13.3928821h-3.9050075v27.5660681h3.7791021c5.8770399,0,8.8175006-4.7233937,8.8175006-14.1731861ZM243.7310109,76.8000842c0-10.2275922-3.3596601-15.3436421-10.0770395-15.3436421h-3.275238v30.9467178h3.7791021c3.442384,0,5.8986306-1.235064,7.3687396-3.7056929,1.4684109-2.4706289,2.2044358-6.4362562,2.2044358-11.8973828Z" style="fill: #fff;"/>
      <path d="M344.7522465,103.4556307h-11.7147798l-8.3136364-40.9589502h-5.1645464v40.9589502h-11.3368211V12.4355188h15.9975034c13.0155595,0,19.5245521,8.1916899,19.5245521,24.5755704,0,10.6623188-2.7713739,18.0311334-8.3136364,22.1049416l9.3213647,44.3395999ZM332.2817918,37.6611756c0-5.2011922-.6300121-8.8623106-1.889551-10.987362-1.2597816-2.123048-3.3184194-3.1858241-6.1722746-3.1858241h-4.6606823v28.3463722h4.0309128c5.7943159,0,8.6915952-4.7238945,8.6915952-14.1731861Z" style="fill: #fff;"/>
      <path d="M298.6656395,103.4556307h-32.2470602V12.4355188h30.7354678v11.4426228h-19.3986468v25.8757433h14.9897752v11.4426228h-14.9897752v30.8165002h20.9102391v11.4426228Z" style="fill: #fff;"/>
    </g>
    <g>
      <path d="M58.9789652,73.0457438c.4201254-3.6919327.6705209-11.0584259-1.3709792-17.1778571-3.967991-5.3180189-10.478273-11.2629082-22.531882-19.4612975-.3704191-.2327572-.469923-.7414031-.2063831-1.096896,1.8501071-2.495637,8.3043378-20.4612159,10.9264634-34.6958677.1467338-.796569,1.2357561-.8265744,1.4222795-.0389244,2.3831132,10.0633983,12.5004987,48.3338832,51.4213745,53.4790377.7371167.0974433.6937629,1.2617189-.0268124,1.4493045-5.7324918,1.4923258-27.4321906,6.0356558-38.3830149,18.1994028-.5048736.5607939-1.4069955.0915521-1.2510457-.6569023Z" style="fill: #e1e800;"/>
      <path d="M40.1944178,50.1861599c-.4201254,3.6919327-.6705209,11.0584259,1.3709792,17.1778571,3.967991,5.3180189,10.478273,11.2629082,22.531882,19.4612975.3704191.2327572.469923.7414031.2063831,1.096896-1.8501071,2.495637-8.3043378,20.4612159-10.9264634,34.6958677-.1467338.796569-1.2357561.8265744-1.4222795.0389244-2.3831132-10.0633983-12.5004987-48.3338832-51.4213745-53.4790377-.7371167-.0974433-.6937629-1.2617189.0268124-1.4493045,5.7324918-1.4923258,27.4321906-6.0356558,38.3830149-18.1994028.5048736-.5607939,1.4069955-.0915521,1.2510457.6569023Z" style="fill: #e1e800;"/>
    </g>
  </g>
</svg>