<?xml version="1.0" encoding="UTF-8"?>
<svg id="Layer_1" xmlns="http://www.w3.org/2000/svg" width="170.9560498" height="61.1083457" version="1.1" viewBox="0 0 170.9560498 61.1083457">
  <!-- Generator: Adobe Illustrator 30.1.0, SVG Export Plug-In . SVG Version: 2.1.1 Build 136)  -->
  <g>
    <path d="M74.2648015,51.3016699h-15.9907008V6.1665361h15.2411311v5.6741779h-9.6194182v12.8312865h7.433143v5.6741779h-7.433143v15.2813135h10.3689879v5.6741779Z" style="fill: #fff;"/>
    <path d="M101.8731716,51.3016699h-5.1219997v-13.7983828c0-1.9766614.0410212-4.8036919.1249884-8.4788565.0828845-3.6754129.1248681-8.0278429.1248681-8.0278429l-6.0181413,21.8030339-1.0774197.0009504-5.959295-21.8039843s.0409009,4.1055646.1248681,7.9309843c.0830048,3.8264131.1249884,6.6847364.1249884,8.5757152v13.7983828h-5.1219997V6.1665361h6.0588717l5.3094222,20.1928848,5.3718563-20.1928848h6.058992v45.1351338Z" style="fill: #fff;"/>
    <path d="M126.4832628,38.0836939c0,4.2131026-.895971,7.4692914-2.685868,9.7683182-1.7909797,2.3002686-4.4144136,3.4496578-7.8704221,3.4496578h-7.1832864V6.1665361h7.1832864c6.7870286,0,10.1815654,4.019882,10.1815654,12.0576592,0,4.6425092-1.6240076,7.8450533-4.8721432,9.6071355,3.4979921,1.763324,5.2468679,5.1806956,5.2468679,10.2523631ZM120.4868252,18.2885193c0-4.4266883-1.4367054-6.6412742-4.3099959-6.6412742h-1.9364186v13.6694863h1.8739845c2.9143117,0,4.37243-2.3422407,4.37243-7.0282121ZM120.8615499,38.0836939c0-5.0716675-1.6659912-7.6086189-4.9970113-7.6086189h-1.6241279v15.3458859h1.8739845c1.7070125,0,2.9250182-.6124446,3.6540171-1.8375823.7281569-1.2251376,1.0931376-3.1916164,1.0931376-5.8996847Z" style="fill: #fff;"/>
    <path d="M170.9560498,51.3016699h-5.8091354l-4.1225734-20.3107605h-2.5609999v20.3107605h-5.6217129V6.1665361h7.9328562c6.4541672,0,9.6818522,4.0621024,9.6818522,12.1865557,0,5.2872401-1.3742713,8.9412944-4.1225734,10.961418l4.6222866,21.9871601ZM164.7721896,18.6754572c0-2.5791718-.3124109-4.3946504-.9369922-5.4484228-.6247016-1.0527789-1.6455408-1.5797893-3.060713-1.5797893h-2.3111433v14.0564242h1.9988526c2.8732905,0,4.3099959-2.342489,4.3099959-7.0282121Z" style="fill: #fff;"/>
    <path d="M148.1025822,51.3016699h-15.9907008V6.1665361h15.2411311v5.6741779h-9.6194182v12.8312865h7.433143v5.6741779h-7.433143v15.2813135h10.3689879v5.6741779Z" style="fill: #fff;"/>
  </g>
  <g>
    <path d="M29.2465416,36.2219882c.2083322-1.8307589.3324985-5.4836621-.6798424-8.518171-1.9676509-2.6371039-5.1959753-5.5850609-11.1731297-9.6504855-.1836837-.1154198-.2330258-.3676476-.1023414-.5439298.9174327-1.2375387,4.1179624-10.1463259,5.4182244-17.2050177.0727625-.3950033.6127878-.4098825.7052812-.0193019,1.1817403,4.9902469,6.1987584,23.9678489,25.4988768,26.5192327.3655221.0483203.3440238.6256623-.0132958.7186824-2.8426331.7400159-13.603099,2.9929663-19.0334035,9.024736-.2503572.278087-.6977022.045399-.6203697-.3257453Z" style="fill: #e0e400;"/>
    <path d="M19.9316436,24.8863575c-.2083322,1.8307589-.3324985,5.4836621.6798424,8.518171,1.9676509,2.6371039,5.1959753,5.5850609,11.1731297,9.6504855.1836837.1154198.2330258.3676476.1023414.5439298-.9174327,1.2375387-4.1179624,10.1463259-5.4182244,17.2050177-.0727625.3950033-.6127878.4098825-.7052812.0193019-1.1817403-4.9902469-6.1987584-23.9678489-25.4988768-26.5192327-.3655221-.0483203-.3440238-.6256623.0132958-.7186824,2.8426331-.7400159,13.603099-2.9929663,19.0334035-9.024736.2503572-.278087.6977022-.045399.6203697.3257453Z" style="fill: #e0e400;"/>
  </g>
</svg>