<?xml version="1.0" encoding="UTF-8"?>
<svg id="Layer_1" xmlns="http://www.w3.org/2000/svg" width="551.6565181" height="197.1899635" version="1.1" viewBox="0 0 551.6565181 197.1899635">
  <!-- Generator: Adobe Illustrator 30.1.0, SVG Export Plug-In . SVG Version: 2.1.1 Build 136)  -->
  <g>
    <path d="M239.6444108,165.5448908h-51.6002466V19.898739h49.1814668v18.3099531h-31.0408128v41.4051615h23.9859414v18.3099531h-23.9859414v49.3111311h33.4595925v18.3099531Z" style="fill: #fff;"/>
    <path d="M328.7336085,165.5448908h-16.5281342v-44.5258757c0-6.3784705.132371-15.5009897.4033241-27.3603448.2674594-11.8601565.4029359-25.9049732.4029359-25.9049732l-19.4198852,70.3560114-3.4767157.0030668-19.2299946-70.3590782s.1319828,13.2482091.4029359,25.5924209c.2678475,12.3474175.4033241,21.5709151.4033241,27.6728971v44.5258757h-16.5281342V19.898739h19.5513178l17.1329262,65.1602358,17.3343941-65.1602358h19.551706v145.6461517Z" style="fill: #fff;"/>
    <path d="M408.1476872,122.8919245c0,13.5952223-2.8912007,24.1025884-8.667003,31.521297-5.7792959,7.4227157-14.244831,11.1316693-25.3969933,11.1316693h-23.1796815V19.898739h23.1796815c21.9010006,0,32.8548005,12.9717206,32.8548005,38.9087504,0,14.9808707-5.2404954,25.315131-15.7218743,31.001178,11.2876389,5.6900541,16.9310701,16.7175393,16.9310701,33.083257ZM388.7978374,59.0150562c0-14.2844401-4.6360916-21.4306673-13.9078865-21.4306673h-6.2486114v44.1099407h6.0471435c9.404166,0,14.1093545-7.558155,14.1093545-22.6792735ZM390.0070332,122.8919245c0-16.3657177-5.3759719-24.5521829-16.1248102-24.5521829h-5.2408836v49.5194992h6.0471435c5.5083429,0,9.4387144-1.976292,11.7911146-5.9296775,2.3496829-3.9533855,3.5274357-10.298998,3.5274357-19.0376389Z" style="fill: #fff;"/>
    <path d="M551.6565181,165.5448908h-18.745446l-13.3030946-65.540608h-8.2640671v65.540608h-18.1406541V19.898739h25.5984613c20.8268932,0,31.2422807,13.1079613,31.2422807,39.3246854,0,17.0613468-4.4346236,28.8525815-13.3030946,35.3712999l14.9156144,70.9501665ZM531.7018762,60.2636625c0-8.3227059-1.008116-14.1810574-3.0235717-17.5814658-2.0158439-3.3972027-5.3099805-5.0978077-9.876587-5.0978077h-7.4578072v45.358547h6.4500793c9.271795,0,13.9078865-7.5589564,13.9078865-22.6792735Z" style="fill: #fff;"/>
    <path d="M477.9108721,165.5448908h-51.6002466V19.898739h49.1814668v18.3099531h-31.0408128v41.4051615h23.9859414v18.3099531h-23.9859414v49.3111311h33.4595925v18.3099531Z" style="fill: #fff;"/>
  </g>
  <g>
    <path d="M94.3753983,116.8844034c.6722652-5.9076591,1.0729364-17.6951791-2.1937772-27.4872083-6.3493947-8.5096467-16.7668454-18.0223821-36.0544702-31.1410635-.5927274-.3724472-.7519489-1.1863588-.3302446-1.755202,2.9604554-3.9934023,13.2882153-32.7410864,17.4840188-55.5187146.2347965-1.2746327,1.9773994-1.322646,2.2758655-.062285,3.813347,16.1029822,20.0027168,77.341633,82.2820931,85.5746701,1.1795.1559243,1.1101271,2.0189439-.042904,2.3191097-9.172867,2.3879504-43.8957162,9.6579758-61.4187161,29.1218382-.8078753.8973563-2.2514089.1464975-2.0018652-1.0511445Z" style="fill: #002c4b;"/>
    <path d="M64.3172389,80.30556c-.6722652,5.9076591-1.0729364,17.6951791,2.1937772,27.4872083,6.3493947,8.5096467,16.7668454,18.0223821,36.0544702,31.1410635.5927274.3724472.7519489,1.1863588.3302446,1.755202-2.9604554,3.9934023-13.2882153,32.7410864-17.4840188,55.5187146-.2347965,1.2746327-1.9773994,1.322646-2.2758655.062285-3.813347-16.1029822-20.0027168-77.341633-82.2820931-85.5746701-1.1795-.1559243-1.1101271-2.0189439.042904-2.3191097,9.172867-2.3879504,43.8957162-9.6579758,61.4187161-29.1218382.8078753-.8973563,2.2514089-.1464975,2.0018652,1.0511445Z" style="fill: #002c4b;"/>
  </g>
</svg>